<?xml version="1.0" standalone="no"?>
<!DOCTYPE svg PUBLIC "-//W3C//DTD SVG 20010904//EN"
 "http://www.w3.org/TR/2001/REC-SVG-20010904/DTD/svg10.dtd">
<svg version="1.0" xmlns="http://www.w3.org/2000/svg"
 width="992.000000pt" height="992.000000pt" viewBox="0 0 992.000000 992.000000"
 preserveAspectRatio="xMidYMid meet">
<metadata>
Created by potrace 1.11, written by Peter Selinger 2001-2013
</metadata>
<g transform="translate(0.000000,992.000000) scale(0.100000,-0.100000)"
fill="#000000" stroke="none">
<path d="M2838 8165 c-2 -3 -52 -7 -109 -10 -185 -8 -324 -23 -459 -50 -14 -3
-36 -8 -50 -10 -52 -10 -66 -13 -110 -26 -25 -7 -47 -13 -50 -14 -17 -4 -66
-21 -140 -48 -79 -29 -129 -53 -237 -113 -22 -12 -43 -21 -45 -19 -2 2 -26 7
-53 11 -28 3 -57 8 -67 9 -30 6 -102 16 -153 21 -27 3 -66 7 -85 9 -235 25
-671 25 -895 0 -76 -8 -162 -17 -185 -19 -14 -2 -45 -6 -70 -11 -55 -10 -78
-13 -108 -14 l-23 -1 4 -1827 c2 -1006 7 -1848 10 -1873 4 -25 9 -67 12 -95 2
-27 7 -79 11 -115 4 -36 13 -103 20 -150 8 -47 15 -92 16 -100 0 -8 9 -55 20
-105 11 -49 21 -100 24 -113 9 -43 74 -257 84 -274 6 -10 10 -22 10 -28 0 -30
162 -358 227 -460 99 -153 155 -223 274 -340 128 -127 122 -121 215 -188 72
-51 68 -49 169 -109 182 -107 486 -221 665 -249 14 -2 41 -7 60 -10 19 -4 49
-8 65 -10 17 -2 53 -8 80 -14 48 -10 67 -12 195 -25 30 -3 71 -8 90 -10 235
-27 627 -41 850 -30 163 8 375 22 375 25 0 1 27 3 60 5 33 2 78 7 100 10 22 3
58 8 80 10 51 6 93 12 125 19 14 2 43 7 65 10 22 3 51 8 65 11 14 3 39 8 55
11 17 2 48 10 70 16 22 5 49 12 60 14 27 5 189 57 245 79 223 86 468 234 624
377 11 10 22 14 25 10 9 -13 159 -113 251 -168 131 -78 416 -212 485 -229 6
-1 23 -7 38 -13 16 -7 34 -12 41 -12 7 0 16 -3 20 -7 3 -4 13 -8 20 -9 8 -1
47 -12 87 -24 41 -12 90 -25 109 -30 80 -20 95 -24 105 -25 6 -1 26 -4 45 -8
70 -14 85 -17 124 -23 22 -3 43 -7 46 -9 3 -2 34 -6 70 -9 36 -3 81 -8 101
-11 171 -22 691 -23 804 -1 11 2 54 7 95 10 41 4 118 16 170 27 52 10 111 21
130 24 90 14 352 116 443 173 35 21 84 27 111 14 5 -3 25 -7 45 -9 20 -2 52
-5 71 -8 19 -2 58 -7 85 -10 28 -3 68 -7 89 -10 186 -23 710 -24 891 -1 17 2
59 7 95 10 36 4 76 8 90 10 156 22 196 29 203 35 9 9 3 3601 -6 3671 -3 25 -8
83 -12 130 -4 47 -9 99 -11 115 -3 17 -7 44 -9 62 -8 66 -16 119 -20 133 -3 8
-7 31 -10 50 -7 54 -15 95 -35 178 -5 23 -14 59 -19 80 -14 61 -82 266 -92
277 -5 5 -9 15 -9 23 0 14 -146 317 -172 357 -86 132 -118 180 -161 235 -59
76 -234 253 -292 296 -22 16 -42 32 -45 35 -7 8 -151 104 -170 113 -8 4 -24
12 -35 19 -27 17 -89 51 -95 52 -3 1 -39 18 -80 37 -41 20 -130 55 -198 78
-111 38 -147 48 -192 55 -8 1 -22 5 -30 8 -15 6 -121 26 -170 33 -14 1 -36 5
-50 8 -14 2 -47 7 -75 10 -27 4 -61 8 -75 11 -48 8 -160 19 -300 29 -41 3 -75
6 -75 7 0 2 -95 8 -240 13 -82 3 -150 6 -150 6 0 6 -103 2 -112 -3 -7 -4 -14
-3 -17 1 -3 5 -18 7 -33 5 -53 -8 -125 -8 -130 0 -2 4 -9 4 -16 0 -6 -3 -40
-8 -76 -9 -131 -5 -345 -22 -471 -38 -19 -3 -54 -7 -78 -10 -23 -3 -68 -10
-100 -15 -31 -6 -75 -13 -97 -16 -22 -3 -92 -19 -155 -35 -63 -17 -122 -32
-130 -34 -65 -17 -266 -99 -359 -147 -109 -56 -264 -153 -295 -184 -8 -8 -17
-15 -21 -15 -3 0 -16 -10 -29 -22 -13 -13 -35 -33 -49 -45 -26 -22 -26 -22
-50 -2 -14 10 -30 19 -35 19 -6 0 -12 4 -14 9 -4 11 -132 94 -213 139 -112 62
-285 143 -399 187 -190 73 -380 124 -636 170 -14 2 -36 6 -50 9 -14 2 -56 8
-95 11 -38 4 -86 9 -105 11 -19 2 -72 6 -118 8 -46 2 -86 6 -89 9 -3 3 -16 2
-29 -3 -13 -5 -24 -6 -24 -2 0 4 -17 6 -37 4 -45 -3 -51 -3 -83 1 -14 2 -37 0
-51 -4 -15 -4 -31 -3 -36 2 -5 5 -12 7 -15 4z m4297 -1360 c138 -5 185 -9 237
-19 65 -12 74 -14 118 -26 25 -7 52 -13 60 -15 53 -11 172 -70 250 -123 109
-76 230 -218 282 -332 32 -70 67 -151 67 -155 0 -3 7 -29 15 -58 8 -28 21 -86
30 -127 55 -267 61 -372 59 -1145 0 -352 -3 -656 -6 -675 -3 -19 -8 -48 -11
-65 -4 -16 -9 -46 -12 -65 -3 -19 -7 -43 -10 -52 -3 -9 -7 -27 -10 -40 -6 -28
-9 -38 -17 -58 -3 -8 -12 -39 -21 -68 -56 -179 -183 -362 -330 -470 -78 -58
-232 -127 -331 -148 -163 -36 -272 -47 -460 -47 -188 0 -266 7 -395 34 -52 12
-102 22 -110 23 -78 13 -300 122 -300 148 0 4 -6 8 -13 8 -19 0 -138 128 -185
198 -78 116 -144 282 -176 442 -3 14 -7 35 -10 46 -7 32 -16 93 -31 219 -14
110 -18 242 -19 712 0 282 -4 513 -8 513 -4 0 -4 10 1 21 4 12 5 40 1 63 -3
22 -5 55 -4 71 5 94 20 204 43 325 5 25 7 48 5 52 -3 5 -1 8 5 8 5 0 10 8 10
18 0 26 36 143 60 192 11 24 21 47 21 52 0 4 22 45 49 91 49 83 159 206 237
265 53 41 183 105 237 118 4 1 8 2 10 4 2 2 8 3 77 20 114 29 160 35 320 46
47 3 86 7 88 9 1 1 12 1 25 -1 12 -2 81 -6 152 -9z m-4040 -9 c50 -3 114 -11
144 -17 30 -6 64 -13 75 -14 12 -2 30 -6 41 -9 11 -3 38 -10 60 -15 185 -45
370 -177 480 -342 45 -66 114 -198 120 -228 2 -9 11 -36 20 -61 15 -43 31
-105 41 -160 3 -14 7 -33 10 -43 3 -10 7 -31 9 -48 2 -16 7 -47 10 -69 26
-173 28 -235 27 -765 0 -580 -4 -671 -32 -886 -25 -184 -72 -365 -119 -457
-12 -23 -21 -48 -21 -56 0 -8 -4 -16 -8 -18 -4 -1 -21 -25 -36 -53 -16 -27
-49 -75 -74 -105 -105 -127 -193 -193 -342 -258 -24 -10 -161 -49 -199 -57
-121 -23 -254 -36 -387 -37 -103 -1 -329 14 -329 22 0 1 -18 4 -40 6 -52 6
-62 8 -110 22 -22 6 -51 13 -65 16 -37 7 -147 54 -191 81 -21 14 -41 25 -45
25 -3 0 -12 6 -19 13 -8 6 -41 35 -73 62 -84 72 -156 166 -209 275 -47 95 -53
109 -71 165 -26 82 -32 103 -37 135 -3 19 -10 54 -15 77 -6 23 -12 61 -15 85
-3 24 -8 59 -11 78 -15 103 -18 235 -18 750 1 609 4 700 40 925 13 81 26 145
40 195 8 30 17 62 19 71 16 72 93 230 153 314 43 60 180 195 199 195 7 0 13 4
13 9 0 5 14 14 30 21 17 7 30 16 30 21 0 5 4 9 10 9 5 0 33 11 62 24 78 36
160 60 278 81 58 11 82 14 170 20 46 3 85 7 87 8 4 4 203 -1 298 -7z"/>
</g>
</svg>
